<svg xmlns="http://www.w3.org/2000/svg" width="1024" height="1024" viewBox="0.0 0.0 1024.0 1024.0"><g id="others"><path id="249" d="M 0,512 C 0,512 0,0 0,0 C 0,0 512,0 512,0 C 512,0 1024,0 1024,0 C 1024,0 1024,512 1024,512 C 1024,512 1024,1024 1024,1024 C 1024,1024 512,1024 512,1024 C 512,1024 0,1024 0,1024 C 0,1024 0,512 0,512M 561.250,863.312 C 593.425,860.460 624.027,855.546 645.750,849.741 C 668.146,843.758 696.538,834.161 716.729,825.751 C 749.361,812.160 786.696,791.988 800.651,780.408 C 802.514,778.861 804.034,777.996 804.901,777.990 C 805.643,777.984 811.763,777.651 818.500,777.250 C 825.237,776.849 835.138,776.288 840.500,776.002 C 845.862,775.716 853.175,775.258 856.750,774.983 C 860.325,774.708 868.200,774.157 874.250,773.758 C 880.300,773.358 888.175,772.803 891.750,772.524 C 895.325,772.245 901.513,771.787 905.500,771.505 C 909.487,771.225 915.450,770.768 918.750,770.489 C 922.050,770.211 929.138,769.646 934.500,769.235 C 946.279,768.330 946.567,768.276 948.062,766.683 C 948.062,766.683 949.250,765.419 949.250,765.419 C 949.250,765.419 949.250,662.585 949.250,662.585 C 949.250,662.585 949.250,559.750 949.250,559.750 C 945.849,560.195 947.918,558.352 949.500,559.004 C 949.500,559.004 949.500,545.077 949.500,545.077 C 949.500,528.169 949.187,523.506 948.052,523.484 C 947.399,523.471 947.437,523.327 948.250,522.713 C 949.212,521.986 949.255,521.284 949.393,503.961 C 949.393,503.961 949.536,485.964 949.536,485.964 C 949.536,485.964 947.501,475.857 947.501,475.857 C 938.938,433.330 923.599,396.148 899.299,359.018 C 876.937,324.847 848.754,294.505 815,268.259 C 809.566,264.033 808.729,263.536 808.590,264.449 C 808.502,265.027 808.317,265.500 808.179,265.500 C 808.040,265.500 805.638,263.546 802.838,261.158 C 778.799,240.643 740.932,218.332 702,201.742 C 670.845,188.466 637.929,178.757 603.750,172.762 C 594.707,171.177 590.096,170.518 572.250,168.268 C 549.620,165.413 514.187,164.233 489.500,165.512 C 438.085,168.174 395.656,175.184 355.118,187.714 C 324.443,197.195 299.357,207.831 271.118,223.330 C 247.230,236.441 223.027,252.877 204.250,268.740 C 157.362,308.352 125.459,352.326 103.761,407.250 C 93.719,432.670 87.236,456.868 83.064,484.500 C 80.246,503.170 80.005,509.507 79.964,566.241 C 79.944,593.746 79.751,635.712 79.533,659.500 C 79.297,685.292 79.322,703.947 79.594,705.717 C 80.163,709.411 81.692,713.037 83.331,714.576 C 84.321,715.506 85.168,715.760 87.415,715.797 C 87.415,715.797 90.250,715.843 90.250,715.843 C 90.250,715.843 90.212,718.547 90.212,718.547 C 90.191,720.034 89.901,724.817 89.568,729.177 C 89.234,733.536 88.990,740.696 89.026,745.087 C 89.026,745.087 89.091,753.071 89.091,753.071 C 89.091,753.071 91.824,754.819 91.824,754.819 C 97.347,758.352 111.618,763.819 122.750,766.668 C 139.079,770.845 167.138,774.775 196.500,776.999 C 199.938,777.260 208.158,777.920 214.768,778.468 C 221.377,779.015 229.927,779.614 233.768,779.798 C 233.768,779.798 240.750,780.131 240.750,780.131 C 240.750,780.131 249.250,784.755 249.250,784.755 C 260.675,790.970 270.479,796.010 275.286,798.139 C 277.466,799.105 281.666,801.044 284.620,802.448 C 297.365,808.506 307.079,811.994 330,818.740 C 333.796,819.856 339.981,822.312 345.750,824.990 C 363.777,833.362 369.731,835.771 388,842.083 C 414.337,851.183 437.784,856.697 468.250,860.952 C 475.491,861.964 493.797,863.856 499.500,864.181 C 507.935,864.663 553.197,864.026 561.250,863.312" stroke="#A4DCF5" fill="#A4DCF5" stroke-width="1" />
  <path id="246" d="M 499.500,864.181 C 493.797,863.856 475.491,861.964 468.250,860.952 C 437.784,856.697 414.337,851.183 388,842.083 C 369.731,835.771 363.777,833.362 345.750,824.990 C 339.981,822.312 333.796,819.856 330,818.740 C 307.079,811.994 297.365,808.506 284.620,802.448 C 281.666,801.044 277.466,799.105 275.286,798.139 C 270.479,796.010 260.675,790.970 249.250,784.755 C 249.250,784.755 240.750,780.131 240.750,780.131 C 240.750,780.131 233.768,779.798 233.768,779.798 C 229.927,779.614 221.377,779.015 214.768,778.468 C 208.158,777.920 199.938,777.260 196.500,776.999 C 167.138,774.775 139.079,770.845 122.750,766.668 C 115.826,764.896 103.917,760.767 97.746,757.998 C 93.273,755.991 88.769,753.032 89.331,752.470 C 89.811,751.989 93.990,752.639 102.500,754.520 C 112.585,756.750 121.303,758.451 128,759.495 C 139.990,761.366 155.220,763.367 175.250,765.703 C 211.146,769.889 218.416,770.525 261,773.208 C 282.375,774.555 294.216,775.125 296.922,774.936 C 296.922,774.936 299.594,774.750 299.594,774.750 C 299.594,774.750 299.422,778.500 299.422,778.500 C 299.422,778.500 299.250,782.250 299.250,782.250 C 299.250,782.250 305.665,783.865 305.665,783.865 C 315.774,786.410 325.762,788.309 339,790.204 C 403.291,799.405 449.050,802.673 514,802.702 C 543.969,802.716 568.309,802.111 582.750,800.995 C 586.050,800.740 593.362,800.292 599,799.997 C 640.724,797.823 681.794,792.347 708.158,785.443 C 708.158,785.443 710.065,784.944 710.065,784.944 C 710.065,784.944 709.908,780.097 709.908,780.097 C 709.908,780.097 709.750,775.250 709.750,775.250 C 709.750,775.250 728.750,775.206 728.750,775.206 C 739.200,775.182 751.800,774.890 756.750,774.558 C 807.273,771.168 841.967,767.468 879.500,761.467 C 884.587,760.654 889.650,759.864 890.750,759.712 C 902.023,758.150 915.316,755.179 921.480,752.843 C 921.480,752.843 924.711,751.620 924.711,751.620 C 924.711,751.620 924.585,744.935 924.585,744.935 C 924.448,737.669 923.643,724.181 923.197,721.708 C 923.001,720.620 923.116,720.165 923.585,720.163 C 925.064,720.157 930.174,717.183 932.440,715.011 C 936.466,711.152 936.276,714.158 936.061,657.444 C 935.921,620.812 936.020,607.547 936.436,607.290 C 936.817,607.054 937,604.308 937,598.806 C 937,590.691 937.003,590.671 938.144,589.366 C 937.069,589.479 937.040,589.354 937.139,585.018 C 937.235,580.880 937.316,580.562 938.246,580.653 C 939.582,580.783 939.572,579.297 938.236,579.105 C 937.277,578.967 937.216,578.560 937.086,571.475 C 937.086,571.475 936.949,563.990 938.750,562.501 C 937.689,562.319 937.204,561.923 937.093,561.149 C 937.745,560.372 940.974,558.530 938.423,558.096 C 937.121,557.946 937.092,557.859 936.793,553.346 C 936.176,544.024 936.053,540.947 935.729,526.750 C 935.179,502.634 935.150,501.898 934.569,497.500 C 933.847,492.041 933.845,492.099 934.875,492.180 C 936.096,492.277 935.977,490.785 934.750,490.598 C 933.646,490.429 932,487.589 932,485.853 C 932,483.701 926.446,456.642 924.435,449 C 915.293,414.249 901.394,382.262 881.851,351 C 864.245,322.837 839.372,293.199 815.875,272.382 C 810.228,267.378 808.500,265.566 808.500,264.644 C 808.500,263.168 808.307,263.058 815.250,268.452 C 832.863,282.133 850.823,298.754 865.160,314.641 C 884.505,336.076 903.643,363.493 916.471,388.146 C 931.702,417.419 941.061,443.870 947.501,475.857 C 947.501,475.857 949.536,485.964 949.536,485.964 C 949.536,485.964 949.393,503.961 949.393,503.961 C 949.255,521.284 949.212,521.986 948.250,522.713 C 947.437,523.327 947.399,523.471 948.052,523.484 C 949.187,523.506 949.500,528.169 949.500,545.077 C 949.500,545.077 949.500,559.004 949.500,559.004 C 945.987,558.225 947.709,560.251 949.250,559.750 C 949.250,559.750 949.250,662.585 949.250,662.585 C 949.250,662.585 949.250,765.419 949.250,765.419 C 949.250,765.419 948.062,766.683 948.062,766.683 C 946.567,768.276 946.279,768.330 934.500,769.235 C 929.138,769.646 922.050,770.211 918.750,770.489 C 915.450,770.768 909.487,771.225 905.500,771.505 C 901.513,771.787 895.325,772.245 891.750,772.524 C 888.175,772.803 880.300,773.358 874.250,773.758 C 868.200,774.157 860.325,774.708 856.750,774.983 C 853.175,775.258 845.862,775.716 840.500,776.002 C 835.138,776.288 825.237,776.849 818.500,777.250 C 811.763,777.651 805.643,777.984 804.901,777.990 C 804.034,777.996 802.514,778.861 800.651,780.408 C 786.696,791.988 749.361,812.160 716.729,825.751 C 696.538,834.161 668.146,843.758 645.750,849.741 C 624.027,855.546 593.425,860.460 561.250,863.312 C 553.197,864.026 507.935,864.663 499.500,864.181" stroke="#80C6F1" fill="#80C6F1" stroke-width="1" />
  <path id="232" d="M 286.250,774.701 C 285.425,774.615 282.331,774.402 279.375,774.225 C 279.375,774.225 274,773.904 274,773.904 C 274,773.904 274,760.052 274,760.052 C 274,750.594 273.825,746.024 273.447,745.646 C 273.042,745.242 273.135,745.114 273.788,745.172 C 276.208,745.383 286.091,720.369 289.562,705.250 C 290.699,700.295 290.427,688.186 289.062,683 C 286.223,672.212 280.663,656.239 278.707,653.255 C 277.959,652.114 278.051,651.886 281.078,647.409 C 282.810,644.846 285.416,640.390 286.869,637.506 C 286.869,637.506 289.512,632.263 289.512,632.263 C 289.512,632.263 288.381,631.343 288.381,631.343 C 285.648,629.120 273.762,621.500 273.027,621.500 C 272.479,621.500 272.235,621.091 272.272,620.239 C 272.320,619.127 273.740,618.193 284.288,612.329 C 296.217,605.697 301.511,602.529 308.375,597.909 C 308.375,597.909 312,595.470 312,595.470 C 312,595.470 312,581.233 312,581.233 C 312,581.233 312,566.997 312,566.997 C 312,566.997 315.267,562.874 315.267,562.874 C 319.499,557.534 323.629,549.231 325.276,542.750 C 325.999,539.909 326.809,534.636 327.153,530.539 C 327.153,530.539 327.759,523.328 327.759,523.328 C 327.759,523.328 331.005,522.319 331.005,522.319 C 333.786,521.456 334.769,520.795 337.880,517.707 C 342.085,513.532 343.733,510.337 344.564,504.748 C 345.851,496.096 342.184,487.384 335.920,484.209 C 335.920,484.209 333.500,482.983 333.500,482.983 C 333.500,482.983 333.500,457.103 333.500,457.103 C 333.500,425.183 333.126,421.476 329.021,412.687 C 323.971,401.875 314.383,393.178 303.341,389.391 C 300.353,388.366 299.121,388.320 266.500,388 C 234.446,387.685 232.561,387.616 229,386.630 C 221.222,384.478 218.076,382.866 211.781,377.812 C 211.781,377.812 209.990,376.373 209.990,376.373 C 209.990,376.373 208.007,377.686 208.007,377.686 C 204.163,380.229 204.250,379.776 204.250,397.478 C 204.250,412.441 204.308,413.433 205.375,416.827 C 206.492,420.378 206.500,420.642 206.500,451.623 C 206.500,451.623 206.500,482.839 206.500,482.839 C 206.500,482.839 205.231,483.418 205.231,483.418 C 204.532,483.736 202.874,485.013 201.546,486.256 C 195.512,491.899 193.951,502.947 198.006,511.296 C 200.731,516.908 204.885,520.681 210.609,522.749 C 213.680,523.857 213.752,523.926 213.871,525.817 C 214.859,541.595 218.522,551.917 226.508,561.429 C 226.508,561.429 229.521,565.017 229.521,565.017 C 229.521,565.017 229.636,579.259 229.636,579.259 C 229.738,591.992 229.666,593.500 228.955,593.500 C 227.546,593.500 213.500,602.352 213.500,603.241 C 213.500,603.946 205.263,608.832 198.894,611.906 C 198.894,611.906 194.038,614.250 194.038,614.250 C 194.038,614.250 193.899,640 193.899,640 C 193.899,640 193.760,665.750 193.760,665.750 C 193.760,665.750 193.625,640.323 193.625,640.323 C 193.519,620.338 193.358,614.946 192.870,615.125 C 192.530,615.251 191.125,615.710 189.750,616.144 C 170.468,622.229 154.013,627.880 146.525,630.991 C 128.306,638.561 112.744,653.941 103.133,673.878 C 97.184,686.218 91.179,707.308 90.934,716.721 C 90.876,718.968 90.834,719.059 90.559,717.539 C 90.251,715.836 90.239,715.828 87.415,715.789 C 85.162,715.758 84.324,715.510 83.331,714.576 C 81.692,713.037 80.163,709.411 79.594,705.717 C 79.322,703.947 79.297,685.292 79.533,659.500 C 79.751,635.712 79.944,593.746 79.964,566.241 C 80.005,509.507 80.246,503.170 83.064,484.500 C 87.236,456.868 93.719,432.670 103.761,407.250 C 125.459,352.326 157.362,308.352 204.250,268.740 C 235.567,242.284 278.212,216.890 319,200.411 C 369.291,180.093 423.943,168.906 489.500,165.512 C 514.187,164.233 549.620,165.413 572.250,168.268 C 590.096,170.518 594.707,171.177 603.750,172.762 C 659.724,182.581 711.624,202.133 762,232.381 C 800.804,255.681 834.830,286.565 863.491,324.500 C 886.760,355.298 904.157,387.636 916.750,423.500 C 924.985,446.950 931.605,477.521 934.778,506.750 C 936.007,518.069 936.253,538.587 936.220,627 C 936.194,693.578 936.069,708.187 935.507,710.237 C 935.005,712.070 934.194,713.330 932.426,715.024 C 930.343,717.021 926.076,719.601 924.043,720.092 C 923.571,720.206 922.862,717.641 921.483,710.832 C 917.568,691.501 912.879,674.783 908.718,665.322 C 902.200,650.503 892.274,638.934 877.591,629.044 C 873.879,626.544 873.326,626.312 858,620.814 C 837.454,613.443 828.766,610.129 815.090,604.438 C 807.753,601.385 801.127,598.567 800.366,598.176 C 799.260,597.607 798.941,597.594 798.776,598.107 C 798.663,598.461 797.788,601.562 796.832,605 C 790.715,627.006 778.284,662.583 768.269,686.750 C 765.798,692.715 759.028,707.422 756.875,711.500 C 755.933,713.288 754.076,716.832 752.750,719.378 C 751.423,721.923 750.236,723.904 750.112,723.779 C 749.989,723.655 750.721,720.813 751.741,717.463 C 758.798,694.269 758.649,685.129 750.830,661.500 C 749.328,656.962 747.292,650.740 746.304,647.673 C 746.304,647.673 744.509,642.096 744.509,642.096 C 744.509,642.096 745.880,640.620 745.880,640.620 C 746.634,639.808 748.798,636.356 750.690,632.947 C 752.582,629.538 754.775,625.667 755.565,624.342 C 756.355,623.018 757,621.658 757,621.321 C 757,620.528 753.843,617.512 748.435,613.140 C 744.887,610.272 743.700,609.595 741.758,609.328 C 740.459,609.150 739.189,609.133 739.818,606.246 C 739.669,605.858 741.689,604.484 745.164,602.609 C 753.031,598.365 759.880,594.258 770.052,587.682 C 770.052,587.682 778.854,581.991 778.854,581.991 C 778.854,581.991 779.177,578.170 779.177,578.170 C 779.355,576.069 779.500,569.683 779.500,563.979 C 779.500,563.979 779.500,553.609 779.500,553.609 C 779.500,553.609 781.125,551.343 781.125,551.343 C 782.019,550.097 784.015,547.317 785.562,545.164 C 791.928,536.304 795.167,527.206 796.478,514.500 C 797.386,505.695 797.212,506.065 801.212,504.445 C 808.763,501.387 813,494.174 813,484.380 C 813,480.740 812.210,477.500 810.634,474.681 C 809.271,472.243 805.405,468.621 803.713,468.196 C 803.713,468.196 802.592,467.915 802.592,467.915 C 802.592,467.915 802.422,431.572 802.422,431.572 C 802.422,431.572 802.250,395.228 802.250,395.228 C 802.250,395.228 800.613,391.903 800.613,391.903 C 798.672,387.961 794.856,384.240 790.625,382.161 C 790.625,382.161 787.750,380.750 787.750,380.750 C 787.750,380.750 754,380.490 754,380.490 C 713.533,380.180 708.897,380.337 704.852,382.159 C 699.332,384.647 694.159,391.195 692.490,397.810 C 692.490,397.810 691.844,400.371 691.844,400.371 C 691.844,400.371 688.434,400.688 688.434,400.688 C 681.077,401.372 676.027,404.678 673.024,410.777 C 672.141,412.570 671.216,415.435 670.968,417.144 C 670.721,418.853 670.538,430.488 670.562,443 C 670.622,474.618 670.850,471.134 668.625,472.616 C 665.666,474.587 663.952,476.534 662.567,479.500 C 661.417,481.964 661.282,482.875 661.266,488.250 C 661.246,495.415 661.781,497.444 664.713,501.344 C 667.539,505.103 670.474,507.182 675.064,508.671 C 675.064,508.671 678.750,509.866 678.750,509.866 C 678.750,509.866 679.114,513.308 679.114,513.308 C 680.862,529.853 684.960,540.040 693.564,549.239 C 695.126,550.909 696.452,552.607 696.511,553.013 C 696.571,553.418 696.592,559.966 696.559,567.564 C 696.559,567.564 696.500,581.379 696.500,581.379 C 696.500,581.379 694.875,582.031 694.875,582.031 C 693.981,582.390 692,583.520 690.472,584.544 C 686.610,587.132 677.319,595.758 676.925,597.123 C 676.708,597.875 676.583,597.970 676.550,597.408 C 676.510,596.733 674.837,597.361 668.153,600.561 C 658.848,605.015 647.386,610 646.448,610 C 645.966,610 645.902,588.362 646.142,508.375 C 646.310,452.481 646.260,405.264 646.031,403.447 C 645.656,400.471 645.121,398.812 643.330,395.060 C 642.074,392.430 638.725,389.397 634.090,386.692 C 622.615,379.991 609.872,372.300 597.750,364.759 C 590.600,360.310 581.038,354.408 576.500,351.643 C 557.250,339.913 551.910,336.604 540.637,329.418 C 534.099,325.251 527.850,321.190 526.750,320.394 C 509.906,308.205 507.413,306.800 502.719,306.844 C 498.680,306.882 496.518,307.897 486.500,314.454 C 481.962,317.423 473.300,322.894 467.250,326.610 C 461.200,330.325 448.600,338.077 439.250,343.836 C 408.139,362.997 385.224,376.399 375.066,381.374 C 364.330,386.632 359.962,391.680 359.075,399.857 C 358.844,401.998 358.740,431.650 358.844,465.750 C 358.950,499.850 359.027,549.154 359.017,575.314 C 359.017,575.314 359,622.879 359,622.879 C 359,622.879 360.625,623.499 360.625,623.499 C 361.519,623.840 363.189,624.535 364.337,625.044 C 366.762,626.120 384.841,632.095 389.250,633.278 C 390.900,633.721 392.587,634.251 393,634.457 C 393.413,634.663 394.819,635.144 396.125,635.525 C 397.431,635.907 398.500,636.345 398.500,636.500 C 398.500,636.910 396.930,637.470 378.750,643.552 C 361.315,649.384 353.401,652.788 348.260,656.663 C 346.615,657.903 345.097,658.810 344.885,658.679 C 344.673,658.548 344.500,649.005 344.500,637.471 C 344.500,623.433 344.330,616.500 343.986,616.500 C 343.410,616.500 330.517,609.393 328.378,607.896 C 326.772,606.773 326,607.068 326,608.806 C 326,609.491 325.671,611.559 325.269,613.402 C 324.866,615.244 323.834,620.462 322.974,625 C 321.373,633.449 317.473,650.520 315.205,659 C 309.901,678.838 295.772,720.872 291.466,729.625 C 290.688,731.206 290.156,732.500 290.285,732.500 C 290.414,732.500 292.371,730.899 294.635,728.942 C 300.635,723.755 308.031,717.864 308.257,718.090 C 308.364,718.197 307.678,721.469 306.733,725.360 C 304.564,734.279 302.888,744.288 301.267,758 C 300.567,763.913 299.828,770.100 299.623,771.750 C 299.623,771.750 299.250,774.750 299.250,774.750 C 299.250,774.750 293.500,774.803 293.500,774.803 C 290.337,774.832 287.075,774.785 286.250,774.701" stroke="#E5F2F9" fill="#E5F2F9" stroke-width="1" />
  <path id="249" d="M 936.250,578.702 C 936.250,562.916 936.419,550 936.625,550 C 936.831,550 937,551.785 937,553.967 C 937,557.923 937.004,557.934 938.375,558.092 C 942.537,559.163 936.245,560.817 937.093,561.149 C 937.204,561.923 937.689,562.319 936.949,563.990 C 936.949,563.990 937.086,571.475 937.086,571.475 C 937.216,578.560 937.277,578.967 938.236,579.105 C 939.572,579.297 939.582,580.783 938.246,580.653 C 937.316,580.562 937.235,580.880 937.139,585.018 C 937.040,589.354 937.069,589.479 938.125,590.711 C 937.003,590.671 937,590.691 937,598.806 C 937,603.280 936.831,607.045 936.625,607.173 C 936.419,607.300 936.250,594.488 936.250,578.702" stroke="#A4DCF5" fill="#A4DCF5" stroke-width="1" />
  <path id="249" d="M 934.991,508.125 C 934.986,507.919 934.435,503.482 933.768,498.265 C 933.100,493.048 932.663,488.670 932.797,488.536 C 932.177,488.628 936.082,491.753 934.875,492.180 C 933.876,492.101 933.862,492.300 934.513,497.500 C 935.293,503.735 935.639,508.500 935.311,508.500 C 935.140,508.500 934.996,508.331 934.991,508.125" stroke="#A4DCF5" fill="#A4DCF5" stroke-width="1" />
  <path id="157" d="M 396.500,635.702 C 395.262,635.288 393.800,634.760 393.250,634.525 C 392.700,634.292 390.900,633.734 389.250,633.287 C 384.745,632.064 366.723,626.102 364.337,625.044 C 363.189,624.535 361.519,623.840 360.625,623.499 C 360.625,623.499 359,622.879 359,622.879 C 359,622.879 359.017,575.314 359.017,575.314 C 359.027,549.154 358.950,499.850 358.844,465.750 C 358.740,431.650 358.844,401.998 359.075,399.857 C 359.962,391.680 364.330,386.632 375.066,381.374 C 385.224,376.399 408.139,362.997 439.250,343.836 C 448.600,338.077 461.200,330.325 467.250,326.610 C 473.300,322.894 481.962,317.423 486.500,314.454 C 496.518,307.897 498.680,306.882 502.719,306.844 C 507.413,306.800 509.906,308.205 526.750,320.394 C 527.850,321.190 534.099,325.251 540.637,329.418 C 551.910,336.604 557.250,339.913 576.500,351.643 C 581.038,354.408 590.600,360.310 597.750,364.759 C 609.872,372.300 622.615,379.991 634.090,386.692 C 638.725,389.397 642.074,392.430 643.330,395.060 C 645.121,398.812 645.656,400.471 646.031,403.447 C 646.260,405.264 646.309,452.538 646.141,508.500 C 646.141,508.500 645.836,610.250 645.836,610.250 C 645.836,610.250 635.293,614.165 635.293,614.165 C 622.165,619.040 608.902,624.653 599.679,629.236 C 599.679,629.236 592.608,632.750 592.608,632.750 C 592.608,632.750 589.679,631.699 589.679,631.699 C 583.849,629.609 573.006,624.006 571.101,622.101 C 570.587,621.587 568.385,619.673 566.208,617.847 C 564.032,616.021 560.225,612.498 557.750,610.018 C 553.054,605.312 552.172,604.889 549.312,605.976 C 549.312,605.976 548.058,606.453 548.058,606.453 C 548.058,606.453 547.904,592.351 547.904,592.351 C 547.904,592.351 547.750,578.250 547.750,578.250 C 547.750,578.250 549.782,576 549.782,576 C 553.120,572.303 554.423,570.221 560.766,558.451 C 561.856,556.430 563.860,550.466 564.194,548.250 C 564.360,547.150 564.725,545.125 565.004,543.750 C 565.284,542.375 565.706,539.756 565.942,537.931 C 566.178,536.106 566.510,534.389 566.678,534.117 C 566.846,533.846 568.280,533.106 569.866,532.473 C 573.843,530.888 576.288,529.138 579.854,525.327 C 586.178,518.567 587.732,507.630 583.668,498.500 C 582.465,495.799 577.750,490 576.756,490 C 575.657,490 575.053,488.498 575.564,487.031 C 576.284,484.968 575.830,424.239 575.074,421.500 C 574.734,420.262 574.278,418.450 574.062,417.471 C 573.846,416.493 573.294,414.940 572.835,414.019 C 572.376,413.099 572,412.140 572,411.889 C 572,411.637 571.325,410.449 570.500,409.250 C 569.675,408.051 569,406.925 569,406.747 C 569,406.125 564.253,400.227 561.870,397.889 C 557.475,393.578 551.620,390.277 545.663,388.752 C 542.989,388.067 538.684,387.981 513.402,388.106 C 513.402,388.106 484.227,388.250 484.227,388.250 C 484.227,388.250 480.903,389.887 480.903,389.887 C 476.543,392.034 472.991,395.921 470.301,401.488 C 467.382,407.531 467.178,407.620 457.476,407.047 C 450.603,406.641 449.401,406.694 446.024,407.555 C 439.579,409.197 435.476,412.672 432.220,419.250 C 429.339,425.070 429.019,427.731 429.009,445.945 C 429,460.776 428.926,462.195 428.125,462.804 C 427.858,463.667 427.714,466.541 428.445,464.928 C 428.693,465.320 428.646,466.209 428.332,467.038 C 425.526,468.692 428.445,470.541 427.729,471.200 C 427.329,471.600 426.945,472.450 426.875,473.089 C 429.755,474.429 425.762,476.126 426.498,477.752 C 426.296,477.877 426.188,479.053 426.259,480.365 C 426.440,483.704 426.418,483.638 427.250,483.319 C 429.327,484.572 426.382,485.354 425.733,485.322 C 425.880,486.656 426.724,487.479 427.959,487.493 C 428.517,487.026 428.517,491.171 428.117,490.375 C 428.182,490.581 426.920,491.987 425.313,493.499 C 420.808,497.738 419.834,500.040 419.598,507 C 419.280,516.365 420.839,521.717 425.089,525.852 C 427.664,528.359 433.778,531.303 437.401,531.784 C 437.401,531.784 440,532.129 440,532.129 C 440,532.129 440.010,535.189 440.010,535.189 C 440.034,542.549 442.103,550.683 445.941,558.495 C 448.635,563.977 452.439,569.888 454.553,571.875 C 455.358,572.631 456.236,574.038 456.505,575 C 457.037,576.904 457.073,590.740 456.567,598.750 C 456.567,598.750 456.250,603.750 456.250,603.750 C 456.250,603.750 454.562,603.912 454.562,603.912 C 453.633,604 452.632,603.832 452.337,603.537 C 451.026,602.226 449.591,603.326 440.673,612.472 C 431.880,621.492 431.193,622.075 426.344,624.659 C 417.702,629.263 401.080,636.543 399.363,636.476 C 399.026,636.463 397.738,636.115 396.500,635.702" stroke="#00DAC3" fill="#00DAC3" stroke-width="1" />
</g><g id="suits 6"><path id="112" d="M 428.277,490.543 C 428.092,490.245 428.187,490 428.488,490 C 428.789,489.745 428.120,486.668 427.959,487.493 C 426.724,487.479 425.880,486.656 425.733,485.322 C 427.981,485.442 428.173,483.786 427.250,483.319 C 426.418,483.638 426.440,483.704 426.259,480.365 C 426.188,479.053 426.296,477.877 426.498,477.752 C 426.443,474.974 428.701,474.084 426.875,473.089 C 426.945,472.450 427.329,471.600 427.729,471.200 C 427.225,467.606 428.482,464.411 429.013,463.004 C 429.608,463.945 429.678,466.187 429.524,479.500 C 429.409,489.471 429.132,491.927 428.277,490.543" stroke="#05E4BF" fill="#05E4BF" stroke-width="1" />
  </g><g id="suits 5"><path id="190" d="M 500.250,632.203 C 497.775,630.674 487.200,624.352 476.750,618.154 C 466.300,611.955 456.875,606.295 455.806,605.576 C 453.933,604.317 453.906,604.258 455.056,603.989 C 456.188,603.723 456.267,603.450 456.567,598.730 C 457.073,590.751 457.037,576.904 456.505,575 C 456.236,574.038 455.358,572.631 454.553,571.875 C 452.439,569.888 448.635,563.977 445.941,558.495 C 442.103,550.683 440.034,542.549 440.010,535.189 C 440.010,535.189 440,532.129 440,532.129 C 440,532.129 437.401,531.784 437.401,531.784 C 433.778,531.303 427.664,528.359 425.089,525.852 C 420.839,521.717 419.280,516.365 419.598,507 C 419.834,500.004 420.845,497.640 425.320,493.610 C 429.543,489.807 429.921,489.519 430.094,489.964 C 430.180,490.185 431.532,490.257 433.099,490.123 C 435.933,489.882 435.950,489.870 436.665,487.773 C 437.637,484.918 439.122,482.659 444.192,476.308 C 444.192,476.308 448.500,470.913 448.500,470.913 C 448.500,470.913 448.500,458.923 448.500,458.923 C 448.500,451.428 448.699,446.562 449.031,445.943 C 449.788,444.529 451.786,443.887 453.680,444.451 C 454.543,444.709 457.950,446.090 461.250,447.521 C 480.164,455.723 485.875,457.337 499.250,458.263 C 510.190,459.020 528.975,455.197 542.309,449.500 C 544.884,448.400 547.222,447.500 547.505,447.500 C 547.788,447.500 549.284,446.825 550.830,446 C 552.376,445.175 553.947,444.500 554.321,444.500 C 554.875,444.500 555,446.760 555,456.759 C 555,456.759 555,469.018 555,469.018 C 555,469.018 556.943,472.217 556.943,472.217 C 558.013,473.977 560.694,477.554 562.904,480.166 C 565.112,482.778 567.170,485.385 567.477,485.958 C 567.809,486.578 568.530,487 569.258,487 C 570.735,487 574.500,488.447 574.500,489.014 C 574.500,489.238 575.183,489.570 576.018,489.754 C 577.832,490.152 582.148,495.087 583.668,498.500 C 585.696,503.056 586.325,507.901 585.543,512.945 C 584.658,518.649 583.265,521.681 579.854,525.327 C 576.288,529.138 573.843,530.888 569.866,532.473 C 568.280,533.106 566.846,533.846 566.678,534.117 C 566.510,534.389 566.178,536.106 565.942,537.931 C 565.706,539.756 565.284,542.375 565.004,543.750 C 564.725,545.125 564.360,547.150 564.194,548.250 C 563.860,550.466 561.856,556.430 560.766,558.451 C 554.362,570.333 553.015,572.477 549.845,575.831 C 549.845,575.831 547.878,577.912 547.878,577.912 C 547.878,577.912 547.814,593.081 547.814,593.081 C 547.814,593.081 547.750,608.250 547.750,608.250 C 547.750,608.250 540.923,612.750 540.923,612.750 C 534.961,616.680 506.007,634.551 505.089,634.867 C 504.903,634.932 502.725,633.732 500.250,632.203" stroke="#F3B943" fill="#F3B943" stroke-width="1" />
  <path id="188" d="M 429.745,489.483 C 429.551,488.873 429.420,483.846 429.452,478.312 C 429.485,472.778 429.377,459.700 429.214,449.250 C 428.880,427.803 429.108,425.534 432.219,419.250 C 435.478,412.671 439.579,409.197 446.024,407.555 C 449.401,406.694 450.603,406.641 457.476,407.047 C 467.178,407.620 467.382,407.531 470.301,401.488 C 472.991,395.921 476.543,392.034 480.903,389.887 C 480.903,389.887 484.227,388.250 484.227,388.250 C 484.227,388.250 513.402,388.106 513.402,388.106 C 538.684,387.981 542.989,388.067 545.663,388.752 C 551.620,390.277 557.475,393.578 561.870,397.889 C 564.253,400.227 569,406.125 569,406.747 C 569,406.925 569.675,408.051 570.500,409.250 C 571.325,410.449 572,411.637 572,411.889 C 572,412.140 572.376,413.099 572.835,414.019 C 573.294,414.940 573.846,416.493 574.062,417.471 C 574.278,418.450 574.735,420.262 575.078,421.500 C 575.548,423.192 575.700,431.601 575.692,455.375 C 575.685,472.769 575.611,487.562 575.528,488.250 C 575.388,489.394 574.500,490.089 574.500,489.055 C 574.500,488.455 570.786,487 569.258,487 C 568.530,487 567.809,486.578 567.477,485.958 C 567.170,485.385 565.112,482.778 562.904,480.166 C 560.694,477.554 558.013,473.977 556.943,472.217 C 556.943,472.217 555,469.018 555,469.018 C 555,469.018 555,456.759 555,456.759 C 555,446.760 554.875,444.500 554.321,444.500 C 553.947,444.500 552.376,445.175 550.830,446 C 549.284,446.825 547.788,447.500 547.505,447.500 C 547.222,447.500 544.884,448.400 542.309,449.500 C 528.975,455.197 510.190,459.020 499.250,458.263 C 485.875,457.337 480.164,455.723 461.250,447.521 C 457.950,446.090 454.543,444.709 453.680,444.451 C 451.786,443.887 449.788,444.529 449.031,445.943 C 448.699,446.562 448.500,451.428 448.500,458.923 C 448.500,458.923 448.500,470.913 448.500,470.913 C 448.500,470.913 444.192,476.308 444.192,476.308 C 439.098,482.688 437.638,484.917 436.644,487.833 C 435.955,489.857 435.786,490 434.078,490.007 C 433.072,490.011 431.765,490.144 431.173,490.303 C 430.361,490.521 430.010,490.320 429.745,489.483" stroke="#EA3C49" fill="#EA3C49" stroke-width="1" />
  </g><g id="doctor suits"><path id="157" d="M 801,703 C 801,703 801,695.490 801,695.490 C 801,695.490 822.375,695.620 822.375,695.620 C 822.375,695.620 843.750,695.750 843.750,695.750 C 843.750,695.750 843.750,703 843.750,703 C 843.750,703 843.750,710.250 843.750,710.250 C 843.750,710.250 822.375,710.380 822.375,710.380 C 822.375,710.380 801,710.510 801,710.510 C 801,710.510 801,703 801,703" stroke="#00DAC3" fill="#00DAC3" stroke-width="1" />
  <path id="232" d="M 699.568,640.069 C 699.568,640.069 698.386,639.160 698.386,639.160 C 698.386,639.160 700.568,637.413 700.568,637.413 C 701.768,636.452 705,633.900 707.750,631.744 C 710.500,629.587 714.100,626.658 715.750,625.234 C 719.217,622.242 722.960,619.500 723.575,619.500 C 723.809,619.500 724,620.077 724,620.783 C 724,621.489 724.247,622.528 724.550,623.093 C 724.960,623.859 724.953,624.030 724.525,623.765 C 724.194,623.561 722.952,624.336 721.600,625.588 C 715.415,631.322 702.283,641.091 700.900,640.989 C 700.817,640.983 700.218,640.569 699.568,640.069" stroke="#E5F2F9" fill="#E5F2F9" stroke-width="1" />
  <path id="190" d="M 735,604.049 C 733.212,603.024 726.979,599.571 721.148,596.374 C 715.317,593.177 707.380,588.585 703.511,586.168 C 703.511,586.168 696.476,581.776 696.476,581.776 C 696.476,581.776 696.515,567.106 696.515,567.106 C 696.515,567.106 696.555,552.436 696.555,552.436 C 696.555,552.436 693.639,549.319 693.639,549.319 C 684.955,540.035 680.868,529.904 679.114,513.308 C 679.114,513.308 678.750,509.866 678.750,509.866 C 678.750,509.866 675.064,508.671 675.064,508.671 C 670.474,507.182 667.539,505.103 664.713,501.344 C 661.781,497.444 661.246,495.415 661.266,488.250 C 661.282,482.875 661.417,481.964 662.567,479.500 C 663.952,476.534 665.666,474.587 668.625,472.616 C 670.308,471.495 670.509,471.130 670.587,469.058 C 670.587,469.058 670.674,466.750 670.674,466.750 C 670.674,466.750 670.867,468.900 670.867,468.900 C 670.867,468.900 671.060,471.050 671.060,471.050 C 671.060,471.050 673.655,470.900 673.655,470.900 C 676.158,470.755 676.303,470.664 677.750,468.348 C 681.445,462.432 684.708,457.639 685.919,456.350 C 687.203,454.983 687.246,454.727 687.681,445.600 C 687.926,440.457 688.184,436.182 688.256,436.099 C 688.327,436.015 691.393,437.173 695.068,438.671 C 708.788,444.264 720.747,447.587 730.727,448.577 C 736.067,449.106 737.625,449.072 743.038,448.306 C 755.169,446.589 770.053,441.990 780.612,436.693 C 783.567,435.212 786.155,434 786.366,434 C 786.577,434 786.750,438.781 786.750,444.625 C 786.750,444.625 786.750,455.250 786.750,455.250 C 786.750,455.250 788.579,458.250 788.579,458.250 C 789.585,459.900 790.991,461.796 791.704,462.462 C 792.578,463.280 793,464.197 793,465.281 C 793,465.281 793,466.889 793,466.889 C 793,466.889 795.875,466.839 795.875,466.839 C 799.332,466.780 802.497,467.130 802.499,467.571 C 802.500,467.748 803.025,468.024 803.667,468.185 C 805.399,468.620 809.255,472.215 810.634,474.681 C 812.210,477.500 813,480.740 813,484.380 C 813,494.174 808.763,501.387 801.212,504.445 C 797.212,506.065 797.386,505.695 796.478,514.500 C 795.167,527.206 791.928,536.304 785.562,545.164 C 784.015,547.317 782.019,550.097 781.125,551.343 C 781.125,551.343 779.500,553.609 779.500,553.609 C 779.500,553.609 779.500,563.979 779.500,563.979 C 779.500,569.683 779.355,576.069 779.177,578.170 C 779.177,578.170 778.854,581.991 778.854,581.991 C 778.854,581.991 770.052,587.682 770.052,587.682 C 757.822,595.588 739.743,606.095 738.606,605.957 C 738.410,605.933 736.788,605.074 735,604.049" stroke="#F3B943" fill="#F3B943" stroke-width="1" />
  <path id="188" d="M 670.909,468.649 C 670.494,463.533 670.543,420.083 670.969,417.144 C 671.216,415.435 672.141,412.570 673.024,410.777 C 676.027,404.678 681.077,401.372 688.434,400.688 C 688.434,400.688 691.844,400.371 691.844,400.371 C 691.844,400.371 692.490,397.810 692.490,397.810 C 694.159,391.195 699.332,384.647 704.852,382.159 C 708.897,380.337 713.533,380.180 754,380.490 C 754,380.490 787.750,380.750 787.750,380.750 C 787.750,380.750 790.625,382.161 790.625,382.161 C 794.856,384.240 798.672,387.961 800.613,391.903 C 800.613,391.903 802.250,395.228 802.250,395.228 C 802.250,395.228 802.250,431.239 802.250,431.239 C 802.250,466.971 802.242,467.249 801.250,467.086 C 800.700,466.995 798.619,466.889 796.625,466.849 C 796.625,466.849 793,466.778 793,466.778 C 793,466.778 793,465.226 793,465.226 C 793,464.202 792.559,463.262 791.704,462.462 C 790.991,461.796 789.585,459.900 788.579,458.250 C 788.579,458.250 786.750,455.250 786.750,455.250 C 786.750,455.250 786.750,444.625 786.750,444.625 C 786.750,438.781 786.577,434 786.366,434 C 786.155,434 783.567,435.212 780.612,436.693 C 770.053,441.990 755.169,446.589 743.038,448.306 C 737.625,449.072 736.067,449.106 730.727,448.577 C 720.747,447.587 708.788,444.264 695.068,438.671 C 691.393,437.173 688.327,436.015 688.256,436.099 C 688.184,436.182 687.926,440.457 687.681,445.600 C 687.246,454.727 687.203,454.983 685.919,456.350 C 684.708,457.639 681.445,462.432 677.750,468.348 C 676.306,470.660 676.154,470.756 673.678,470.899 C 673.678,470.899 671.105,471.048 671.105,471.048 C 671.105,471.048 670.909,468.649 670.909,468.649" stroke="#EA3C49" fill="#EA3C49" stroke-width="1" />
  <path id="158" d="M 731.638,737.910 C 727.867,732.328 720.059,717.154 715.524,706.597 C 712.149,698.737 703.927,677.276 697.798,660.321 C 691.162,641.967 677,599.318 677,597.691 C 677,596.446 677.859,595.423 682.371,591.291 C 687.634,586.471 691.856,583.313 694.654,582.102 C 695.980,581.529 696.458,581.745 703.154,585.939 C 707.057,588.384 714.638,592.798 720,595.748 C 725.362,598.698 731.750,602.212 734.193,603.556 C 736.638,604.900 738.943,606 738.468,608.750 C 738.352,609.025 737.243,609.724 736.004,610.303 C 734.764,610.883 731.632,613.020 729.043,615.053 C 726.454,617.087 723.168,619.556 721.741,620.542 C 720.314,621.527 717.033,624.117 714.448,626.297 C 711.865,628.476 707.340,632.122 704.393,634.399 C 701.447,636.676 698.917,638.730 698.772,638.965 C 698.627,639.199 699.069,639.758 699.755,640.207 C 700.908,640.962 701.122,640.962 702.575,640.211 C 705.639,638.626 716.734,630.099 721.600,625.588 C 722.893,624.390 724.142,623.529 724.378,623.674 C 724.613,623.820 726.201,626.709 727.905,630.095 C 729.610,633.480 731.903,637.436 733.002,638.885 C 734.101,640.335 735,641.730 735,641.986 C 735,642.242 734.194,644.284 733.210,646.524 C 731.404,650.631 726.979,663.280 725.086,669.750 C 721.903,680.625 721.200,691.405 723.024,701.392 C 724.902,711.673 729.468,728.689 732.770,737.713 C 733.756,740.408 733.370,740.475 731.638,737.910" stroke="#FDFDFA" fill="#FDFDFA" stroke-width="1" />
  </g><g id="doctor"><path id="190" d="M 253.830,608.260 C 243.981,602.353 234.533,596.551 232.836,595.367 C 232.836,595.367 229.750,593.215 229.750,593.215 C 229.750,593.215 229.643,579.124 229.643,579.124 C 229.643,579.124 229.536,565.034 229.536,565.034 C 229.536,565.034 226.516,561.438 226.516,561.438 C 218.522,551.917 214.859,541.600 213.871,525.817 C 213.752,523.926 213.680,523.857 210.609,522.749 C 204.886,520.682 200.736,516.912 198.002,511.296 C 193.967,503.005 195.519,491.892 201.494,486.304 C 204.169,483.801 207.380,482 209.165,482 C 210.242,482 210.434,481.673 210.972,478.937 C 211.495,476.279 211.877,475.600 213.851,473.812 C 215.102,472.678 217.503,470.067 219.188,468.010 C 219.188,468.010 222.250,464.269 222.250,464.269 C 222.250,464.269 222.250,451.676 222.250,451.676 C 222.250,444.750 222.405,438.928 222.595,438.739 C 222.784,438.550 224.246,439.385 225.845,440.596 C 232.821,445.880 242.012,450.423 251.750,453.399 C 261.973,456.523 266.228,457.240 274.500,457.233 C 287.533,457.221 297.669,454.734 310.079,448.503 C 312.734,447.170 315.434,446.005 316.079,445.914 C 316.079,445.914 317.250,445.750 317.250,445.750 C 317.250,445.750 317.500,455.500 317.500,455.500 C 317.500,455.500 317.750,465.250 317.750,465.250 C 317.750,465.250 320.375,467.693 320.375,467.693 C 321.819,469.038 323,470.358 323,470.627 C 323,470.897 323.878,471.969 324.952,473.012 C 326.853,474.856 330,480.583 330,482.197 C 330,482.783 330.477,483 331.767,483 C 334.137,483 337.966,485.010 339.991,487.316 C 343.661,491.497 345.495,498.486 344.564,504.748 C 343.733,510.337 342.085,513.532 337.880,517.707 C 334.769,520.795 333.786,521.456 331.005,522.319 C 331.005,522.319 327.759,523.328 327.759,523.328 C 327.759,523.328 327.153,530.539 327.153,530.539 C 326.809,534.636 325.999,539.909 325.276,542.750 C 323.629,549.231 319.499,557.534 315.267,562.874 C 315.267,562.874 312,566.997 312,566.997 C 312,566.997 312,581.233 312,581.233 C 312,581.233 312,595.470 312,595.470 C 312,595.470 308.375,597.909 308.375,597.909 C 301.509,602.530 296.216,605.698 284.269,612.340 C 277.680,616.003 272.164,619 272.014,619 C 271.863,619 263.680,614.167 253.830,608.260" stroke="#F3B943" fill="#F3B943" stroke-width="1" />
  <path id="216" d="M 206.500,479.303 C 206.500,477.486 206.707,476 206.959,476 C 207.212,476 207.774,475.863 208.209,475.697 C 208.858,475.447 209,475.796 209,477.643 C 209,479.182 209.237,479.984 209.750,480.181 C 210.982,480.654 210.643,482 209.291,482 C 208.626,482 207.726,482.137 207.291,482.303 C 206.619,482.562 206.500,482.111 206.500,479.303" stroke="#405D84" fill="#405D84" stroke-width="1" />
  <path id="229" d="M 330,482.197 C 330,480.583 326.853,474.856 324.952,473.012 C 323.878,471.969 323,470.897 323,470.627 C 323,470.358 321.819,469.038 320.375,467.693 C 320.375,467.693 317.750,465.250 317.750,465.250 C 317.750,465.250 317.500,455.500 317.500,455.500 C 317.500,455.500 317.250,445.750 317.250,445.750 C 317.250,445.750 316.079,445.914 316.079,445.914 C 315.434,446.005 312.734,447.170 310.079,448.503 C 299.087,454.022 289.635,456.594 277.625,457.336 C 277.625,457.336 272.500,457.652 272.500,457.652 C 272.500,457.652 272.500,423.103 272.500,423.103 C 272.500,423.103 272.500,388.555 272.500,388.555 C 272.500,388.555 270.125,388.349 270.125,388.349 C 268.819,388.235 275.062,388.186 284,388.238 C 299.099,388.327 300.469,388.409 303.341,389.392 C 314.376,393.171 323.970,401.874 329.021,412.687 C 333.126,421.476 333.500,425.182 333.500,457.112 C 333.500,457.112 333.500,483 333.500,483 C 333.500,483 331.750,483 331.750,483 C 330.476,483 330,482.781 330,482.197" stroke="#314970" fill="#314970" stroke-width="1" />
  <path id="229" d="M 209.625,480.141 C 209.252,480.007 209,479.021 209,477.699 C 209,475.589 208.940,475.496 207.762,475.791 C 207.762,475.791 206.524,476.103 206.524,476.103 C 206.524,476.103 206.343,447.426 206.343,447.426 C 206.243,431.654 206.012,417.962 205.831,417 C 205.619,415.882 205.907,416.333 206.628,418.250 C 208.471,423.156 211.359,426.962 218.250,433.565 C 218.250,433.565 222.250,437.399 222.250,437.399 C 222.250,437.399 222.250,450.832 222.250,450.832 C 222.250,450.832 222.250,464.266 222.250,464.266 C 222.250,464.266 219.188,468.008 219.188,468.008 C 217.503,470.066 215.090,472.688 213.825,473.834 C 212.043,475.449 211.451,476.382 211.196,477.971 C 210.845,480.164 210.608,480.493 209.625,480.141" stroke="#314970" fill="#314970" stroke-width="1" />
  <path id="216" d="M 268.250,457.166 C 253.746,455.389 236.487,448.656 225.913,440.649 C 224.352,439.467 222.963,438.500 222.232,438.861 C 222.313,437.719 221.612,436.783 218.291,433.602 C 211.335,426.940 208.059,422.610 206.692,418.274 C 206.204,416.727 205.659,415.743 205.463,416.060 C 204.521,417.584 203.937,408.907 204.089,395.658 C 204.269,380.023 204.234,380.183 208.007,377.686 C 208.007,377.686 209.990,376.373 209.990,376.373 C 209.990,376.373 211.781,377.812 211.781,377.812 C 218.109,382.894 221.370,384.557 229,386.594 C 232.294,387.473 235.149,387.644 252.500,388 C 263.363,388.222 272.306,388.425 272.375,388.452 C 272.444,388.478 272.500,404.025 272.500,423 C 272.500,423 272.500,457.500 272.500,457.500 C 272.500,457.500 271.125,457.425 271.125,457.425 C 270.368,457.384 269.075,457.267 268.250,457.166" stroke="#405D84" fill="#405D84" stroke-width="1" />
  </g><g id="suits 4"><path id="232" d="M 654.405,737.025 C 654.303,699.213 654.076,678.890 653.750,678.592 C 653.452,678.319 651.528,678.307 649,678.559 C 623.186,681.143 602.682,683.053 597.896,683.322 C 597.896,683.322 592.043,683.650 592.043,683.650 C 592.043,683.650 591.896,686.950 591.896,686.950 C 591.816,688.765 591.682,677.431 591.597,661.763 C 591.485,640.745 591.292,633.181 590.862,632.915 C 590.542,632.717 590.402,632.432 590.552,632.281 C 590.702,632.130 592.833,632.819 595.288,633.811 C 601.847,636.461 609.029,639.022 625.250,644.499 C 642.107,650.191 649.636,653.052 655.444,655.971 C 667.773,662.170 678.295,671.477 685.933,682.939 C 695.655,697.529 701.298,711.796 705.236,731.750 C 707.925,745.372 709.044,756.256 709.795,776.088 C 709.795,776.088 710.130,784.927 710.130,784.927 C 710.130,784.927 708.190,785.434 708.190,785.434 C 695.250,788.824 682.055,791.337 664.582,793.740 C 659.539,794.433 655.221,795 654.986,795 C 654.752,795 654.490,768.912 654.405,737.025" stroke="#E5F2F9" fill="#E5F2F9" stroke-width="1" />
  <path id="232" d="M 531.064,750 C 531.035,749.312 531.344,747.513 531.750,746 C 532.739,742.314 532.708,741.130 531.625,741.134 C 529.585,741.141 529,740.962 529,740.327 C 529,739.957 528.606,739.322 528.125,738.913 C 527.040,737.995 522.060,736.404 521.449,736.782 C 521.202,736.934 521,736.674 521,736.205 C 521,735.173 519.136,738.640 517.500,742.716 C 516.846,744.346 516.220,745.408 516.108,745.074 C 515.996,744.740 516.806,742.168 517.905,739.359 C 522.787,726.891 523.273,723.496 521.471,714.429 C 520.480,709.440 518.171,700.182 517.749,699.497 C 517.636,699.315 517.413,698.398 517.254,697.458 C 517.094,696.519 516.649,694.850 516.264,693.750 C 515.880,692.650 514.971,689.725 514.244,687.250 C 513.516,684.775 512.457,681.401 511.889,679.753 C 510.260,675.023 510.211,673.616 511.616,672.077 C 513.439,670.080 519.643,660.188 521.952,655.596 C 521.952,655.596 523.988,651.547 523.988,651.547 C 523.988,651.547 522.119,650.026 522.119,650.026 C 512.286,642.026 504.197,636.143 504.753,634.693 C 505.421,634.756 530.340,619.679 540.841,612.859 C 544.967,610.178 547.707,608.068 547.870,607.445 C 548.166,606.312 549.856,605.499 551.908,605.503 C 552.935,605.505 554.365,606.619 558,610.255 C 560.612,612.866 564.718,616.635 567.125,618.627 C 569.530,620.620 571.500,622.606 571.500,623.043 C 571.500,623.479 570.730,626.291 569.789,629.293 C 568.848,632.294 566.724,639.250 565.068,644.750 C 563.412,650.250 558.574,665.212 554.318,678 C 544.862,706.408 532.894,744.078 531.364,750.250 C 531.159,751.077 531.107,751.034 531.064,750" stroke="#E5F2F9" fill="#E5F2F9" stroke-width="1" />
  </g><g id="suits 3"><path id="158" d="M 499.288,794.953 C 488.697,772.918 483.314,760.122 465.649,715 C 449.271,673.164 448.325,670.668 441.009,650 C 439.402,645.462 436.492,637.384 434.541,632.046 C 434.541,632.046 430.993,622.342 430.993,622.342 C 430.993,622.342 439.080,614.046 439.080,614.046 C 449.957,602.889 449.840,603 450.707,603 C 451.505,603 454.132,604.365 456.411,605.962 C 457.147,606.479 466.300,611.971 476.750,618.166 C 500.591,632.301 503.478,634.058 503.860,634.678 C 504.030,634.953 503.664,635.532 503.048,635.964 C 502.432,636.396 499.637,638.556 496.839,640.764 C 494.040,642.972 489.769,646.312 487.349,648.187 C 484.928,650.061 483.028,651.742 483.125,651.923 C 483.223,652.102 483.671,653.056 484.123,654.040 C 484.574,655.024 485.293,656.120 485.721,656.476 C 486.149,656.832 486.500,657.343 486.500,657.614 C 486.500,657.884 487.175,659.105 488,660.327 C 488.825,661.550 489.500,662.669 489.500,662.815 C 489.500,663.216 496.446,672.332 497.276,673.021 C 498.232,673.815 498.190,674.549 497.041,677.111 C 496.514,678.288 495.490,681.275 494.764,683.750 C 494.038,686.225 493.142,689.038 492.771,690 C 492.400,690.962 491.378,694.112 490.499,697 C 489.620,699.888 488.496,703.487 488,705 C 486.348,710.042 484.273,720.319 484.467,722.500 C 484.632,724.337 484.786,725.161 485.120,726 C 485.284,726.413 485.531,727.312 485.668,728 C 486.165,730.504 489.483,739.498 491.061,742.618 C 491.303,743.096 491.500,743.716 491.500,743.995 C 491.500,744.275 492.062,745.671 492.750,747.096 C 493.438,748.521 494,749.909 494,750.179 C 494,750.449 494.298,751.027 494.661,751.461 C 495.024,751.894 495.625,753.210 495.993,754.382 C 496.363,755.554 496.966,756.764 497.332,757.068 C 497.700,757.373 498,757.989 498,758.438 C 498,758.886 499.320,761.948 500.934,765.242 C 500.934,765.242 503.868,771.232 503.868,771.232 C 503.868,771.232 505.402,768.193 505.402,768.193 C 507.454,764.130 513.644,750.346 514.747,747.385 C 515.231,746.085 515.799,745.126 516.008,745.255 C 516.217,745.384 516.907,744.198 517.539,742.620 C 519.140,738.630 521,735.182 521,736.205 C 521,736.674 521.202,736.934 521.449,736.782 C 522.060,736.404 527.040,737.995 528.125,738.913 C 528.606,739.322 529,739.957 529,740.327 C 529,740.962 529.585,741.141 531.625,741.134 C 532.708,741.130 532.739,742.314 531.750,746 C 531.344,747.513 531.010,749.376 531.006,750.140 C 531.003,750.905 529.860,755.808 528.465,761.035 C 527.071,766.263 526.002,770.749 526.090,771.005 C 526.614,772.528 560.347,733.702 578.008,711.250 C 590.669,695.153 592,692.798 592,686.486 C 592,686.486 592,683.653 592,683.653 C 592,683.653 597.875,683.323 597.875,683.323 C 602.678,683.053 623.160,681.145 649,678.559 C 651.528,678.307 653.452,678.319 653.750,678.592 C 654.076,678.890 654.304,699.198 654.405,736.979 C 654.405,736.979 654.560,794.908 654.560,794.908 C 654.560,794.908 653.155,795.190 653.155,795.190 C 646.909,796.446 618.351,798.986 599.250,799.985 C 593.750,800.272 586.212,800.731 582.500,801.005 C 571.317,801.832 551.072,802.492 526.490,802.833 C 526.490,802.833 503.231,803.156 503.231,803.156 C 503.231,803.156 499.288,794.953 499.288,794.953M 609.290,767.434 C 609.482,767.124 609.614,764.705 609.582,762.059 C 609.499,755.123 609.125,755.540 615.145,755.835 C 619.160,756.032 620.656,755.912 622.153,755.274 C 623.686,754.621 623.995,754.270 623.741,753.472 C 623.568,752.928 623.384,749.617 623.331,746.116 C 623.279,742.615 623.072,739.494 622.873,739.182 C 622.346,738.355 618.977,737.822 618.335,738.465 C 618.028,738.772 615.713,739 612.900,739 C 612.900,739 608,739 608,739 C 608,739 608,732.500 608,732.500 C 608,732.500 608,726 608,726 C 608,726 601.750,726 601.750,726 C 601.750,726 595.500,726 595.500,726 C 595.500,726 595.500,732.750 595.500,732.750 C 595.500,732.750 595.500,739.500 595.500,739.500 C 595.500,739.500 589.308,739.500 589.308,739.500 C 589.308,739.500 583.116,739.500 583.116,739.500 C 583.116,739.500 582.900,742.875 582.900,742.875 C 582.781,744.731 582.783,747.987 582.905,750.111 C 582.905,750.111 583.127,753.971 583.127,753.971 C 583.127,753.971 589.438,754.111 589.438,754.111 C 589.438,754.111 595.750,754.250 595.750,754.250 C 595.750,754.250 595.889,761.125 595.889,761.125 C 595.889,761.125 596.028,768 596.028,768 C 596.028,768 602.485,768 602.485,768 C 606.747,768 609.060,767.808 609.290,767.434" stroke="#FDFDFA" fill="#FDFDFA" stroke-width="1" />
  <path id="216" d="M 487.750,802.656 C 475.750,802.369 441.596,800.920 430.500,800.227 C 419.300,799.528 395.103,797.306 382.250,795.795 C 354.548,792.542 353.579,792.382 353.237,791.021 C 353.062,790.323 352.844,759.402 352.752,722.307 C 352.637,675.940 352.421,654.760 352.060,654.538 C 350.976,653.867 362.698,648.902 375,644.819 C 404.599,634.997 413.707,631.430 425.912,624.877 C 428.491,623.492 430.753,622.569 430.974,622.812 C 431.930,623.857 440.598,648.881 440.760,651.066 C 440.858,652.376 441.154,653.855 441.419,654.350 C 441.683,654.845 442.039,656.127 442.209,657.199 C 442.379,658.271 442.644,659.734 442.800,660.449 C 443.534,661.649 439.387,660.490 438.831,661.040 C 437.793,662.253 434.227,662.433 434.681,661.250 C 434.553,660.412 432.084,659.752 431.534,659.258 C 430.728,659.081 429.801,658.613 429.474,658.218 C 428.318,656.806 425.588,656.908 424.610,657.250 C 424.073,656.505 420.916,656.410 419.592,657.100 C 418.877,657.473 418.305,657.522 418.092,657.227 C 417.430,656.305 416.067,656.486 415.288,657.598 C 413.533,658.338 407.295,655.272 401.684,656.907 C 400.942,657.322 398.202,656.721 397.500,655.989 C 397.363,655.846 396.518,655.660 395.623,655.577 C 394.304,655.453 393.914,655.644 393.563,656.587 C 392.990,658.130 393.354,658.945 394.485,658.649 C 395.630,658.350 399,659.898 399,660.723 C 399,661.587 400.586,661.510 401.637,660.596 C 405.795,659.669 399.920,662.689 401.724,662.283 C 402.536,662.183 403.773,662.324 404.474,662.597 C 405.176,662.870 406.640,663.201 407.728,663.332 C 408.817,663.462 409.924,663.703 410.188,663.866 C 409.922,663.188 411.281,659.079 411.624,661.164 C 411.555,661.667 411.815,662.530 412.202,663.082 C 412.804,664.229 415.294,660.795 414.666,662.625 C 414.416,662.969 414.219,664.011 414.230,664.942 C 414.245,666.231 414.519,666.734 415.375,667.051 C 416.268,668.734 418.297,663.567 419,666.500 C 418.274,667.857 418.775,668.435 420.892,668.682 C 421.770,668.784 422.828,669.150 423.244,669.495 C 425.500,667.672 424.002,673.080 426.428,673.082 C 427.712,672.953 428.438,673.232 429.523,674.272 C 430.786,675.481 430.858,675.713 430.188,676.383 C 429.627,676.944 429.292,676.992 428.868,676.568 C 428.098,675.798 426.247,675.851 424.282,679.303 C 423.515,679.110 422.692,679.338 421.930,679.956 C 420.776,680.890 420.772,680.920 421.707,681.952 C 422.826,683.189 423.647,683.278 424.495,682.255 C 425.484,681.854 429.678,680.077 429.933,680.792 C 430.548,680.412 432.165,682.328 432.897,682.633 C 432.777,681.926 433.168,681.747 435,681.673 C 435.110,686.793 440.972,686.793 441.721,687.409 C 442.004,688.300 443.599,688.567 444.323,687.843 C 444.512,687.654 445.055,687.500 445.531,687.500 C 446.005,687.500 447.096,686.845 447.954,686.043 C 449.425,684.669 449.500,684.419 449.291,681.668 C 449.168,680.063 448.916,678.356 449.500,677.531 C 449.500,678.005 451.430,682.553 452.461,684.506 C 452.680,684.922 453.246,686.610 453.719,688.256 C 454.191,689.903 454.997,691.972 455.510,692.855 C 456.500,694.558 461.430,706.627 461.681,707.961 C 461.762,708.395 462.199,709.538 462.649,710.500 C 463.099,711.462 464.319,714.383 465.359,716.989 C 466.399,719.595 467.468,721.732 467.734,721.739 C 468,721.745 471.964,731.087 476.544,742.500 C 487.178,769.001 493.839,784.256 500.956,798.413 C 502.053,800.596 502.812,802.521 502.642,802.691 C 502.473,802.861 500.289,802.952 497.791,802.894 C 495.293,802.836 490.775,802.729 487.750,802.656M 435.500,736.500 C 435.500,736.500 435.500,729 435.500,729 C 435.500,729 411.500,729 411.500,729 C 411.500,729 387.500,729 387.500,729 C 387.500,729 387.500,736.500 387.500,736.500 C 387.500,736.500 387.500,744 387.500,744 C 387.500,744 411.500,744 411.500,744 C 411.500,744 435.500,744 435.500,744 C 435.500,744 435.500,736.500 435.500,736.500M 426.534,691.710 C 427.046,691.092 427.060,690.712 426.599,689.973 C 426.158,689.265 426.149,688.718 426.570,687.795 C 427.331,686.125 426.786,684.890 425.377,685.090 C 424.365,685.234 424.239,685.556 424.144,688.250 C 424.085,689.900 424.135,691.531 424.253,691.875 C 424.553,692.743 425.748,692.657 426.534,691.710M 422.183,676.463 C 424.174,674.897 423.870,674.135 421.231,674.082 C 419.983,674.057 418.755,673.908 418.503,673.752 C 417.538,673.156 418.661,672.061 420.565,671.739 C 422.844,671.354 422.943,670.277 420.708,670.200 C 419.906,670.173 418.671,669.989 417.963,669.793 C 417.043,669.538 416.477,669.675 415.979,670.275 C 415.373,671.005 415.411,671.222 416.266,671.933 C 416.903,672.462 417.195,673.226 417.094,674.101 C 416.724,677.310 419.479,678.590 422.183,676.463" stroke="#405D84" fill="#405D84" stroke-width="1" />
  <path id="216" d="M 337,789.965 C 322.759,787.857 299.906,783.080 299.308,782.084 C 298.568,780.852 301.404,754.053 303.783,739.804 C 304.808,733.656 307.135,722.930 308.452,716.895 C 309.593,715.749 310.590,713.809 311.738,710.500 C 318.373,691.385 327.642,675.766 339.101,664.395 C 342.346,661.176 345,658.672 347.091,658.390 C 347.480,658.780 347.709,678.111 347.883,725.220 C 348.089,781.311 348.022,791.493 347.438,791.453 C 347.060,791.428 342.363,790.758 337,789.965" stroke="#405D84" fill="#405D84" stroke-width="1" />
  <path id="232" d="M 608.500,761.100 C 608.500,761.100 608.500,754 608.500,754 C 608.500,754 615.520,754 615.520,754 C 615.520,754 622.540,754 622.540,754 C 622.540,754 622.395,746.625 622.395,746.625 C 622.395,746.625 622.250,739.250 622.250,739.250 C 622.250,739.250 620,739 620,739 C 618.627,738.847 617.990,738.595 618.366,738.351 C 619.157,737.840 622.399,738.437 622.873,739.182 C 623.072,739.494 623.279,742.615 623.331,746.116 C 623.384,749.617 623.568,752.928 623.741,753.472 C 623.995,754.270 623.686,754.621 622.153,755.274 C 620.656,755.912 619.160,756.032 615.145,755.835 C 610.684,755.616 610.008,755.690 609.783,756.418 C 609.640,756.875 609.551,759.457 609.583,762.154 C 609.620,765.239 609.430,767.270 609.071,767.629 C 608.643,768.057 608.500,766.422 608.500,761.100" stroke="#E5F2F9" fill="#E5F2F9" stroke-width="1" />
  <path id="158" d="M 387.500,736.500 C 387.500,736.500 387.500,729 387.500,729 C 387.500,729 411.500,729 411.500,729 C 411.500,729 435.500,729 435.500,729 C 435.500,729 435.500,736.500 435.500,736.500 C 435.500,736.500 435.500,744 435.500,744 C 435.500,744 411.500,744 411.500,744 C 411.500,744 387.500,744 387.500,744 C 387.500,744 387.500,736.500 387.500,736.500" stroke="#FDFDFA" fill="#FDFDFA" stroke-width="1" />
  <path id="216" d="M 526.196,769.976 C 528.128,758.986 554.959,673.040 556.365,673.338 C 556.593,673.387 557.420,672.206 558.202,670.713 C 560.066,667.153 561.582,666.938 565.549,669.668 C 566.814,670.538 569.514,672.399 571.549,673.804 C 576.291,677.077 579.547,678.733 585.750,681.026 C 585.750,681.026 590.750,682.875 590.750,682.875 C 590.750,682.875 591.190,686.735 591.190,686.735 C 591.929,693.221 591.368,694.263 578.010,711.250 C 564.878,727.951 544.428,752 532.519,764.750 C 525.218,772.567 525.828,772.062 526.196,769.976" stroke="#405D84" fill="#405D84" stroke-width="1" />
  <path id="229" d="M 417.487,676.476 C 417.185,675.912 417.009,674.843 417.094,674.101 C 417.195,673.226 416.903,672.462 416.266,671.933 C 415.411,671.222 415.373,671.005 415.979,670.275 C 416.477,669.675 417.043,669.538 417.963,669.793 C 418.671,669.989 419.906,670.173 420.708,670.200 C 422.943,670.277 422.844,671.354 420.565,671.739 C 418.661,672.061 417.538,673.156 418.503,673.752 C 418.755,673.908 419.983,674.057 421.231,674.082 C 423.870,674.135 424.174,674.897 422.183,676.463 C 420.462,677.817 418.208,677.822 417.487,676.476" stroke="#314970" fill="#314970" stroke-width="1" />
  <path id="229" d="M 424.253,691.875 C 424.135,691.531 424.085,689.900 424.144,688.250 C 424.239,685.556 424.365,685.234 425.377,685.090 C 426.786,684.890 427.331,686.125 426.570,687.795 C 426.149,688.718 426.158,689.265 426.599,689.973 C 427.060,690.712 427.046,691.092 426.534,691.710 C 425.748,692.657 424.553,692.743 424.253,691.875" stroke="#314970" fill="#314970" stroke-width="1" />
  <path id="229" d="M 349.120,791.575 C 349.120,791.575 347.990,791.250 347.990,791.250 C 347.990,791.250 347.938,742 347.938,742 C 347.910,714.913 347.740,684.875 347.559,675.250 C 347.559,675.250 347.231,657.750 347.231,657.750 C 347.231,657.750 348.740,656.385 348.740,656.385 C 350.298,654.977 351.884,654.217 352.330,654.664 C 352.471,654.804 352.661,685.303 352.752,722.438 C 352.844,759.574 353.065,790.418 353.243,790.979 C 353.527,791.872 353.360,791.994 351.909,791.950 C 350.996,791.923 349.741,791.754 349.120,791.575" stroke="#314970" fill="#314970" stroke-width="1" />
  <path id="229" d="M 590.907,684.989 C 590.907,684.989 590.750,682.875 590.750,682.875 C 590.750,682.875 585.750,681.026 585.750,681.026 C 579.547,678.733 576.292,677.077 571.549,673.804 C 569.514,672.399 566.814,670.538 565.549,669.668 C 561.577,666.933 560.067,667.152 558.192,670.731 C 557.406,672.234 556.596,673.297 556.394,673.093 C 556.191,672.890 556.712,670.716 557.552,668.263 C 559.620,662.220 564.745,645.971 568.515,633.500 C 570.220,627.862 571.675,623.183 571.749,623.100 C 571.823,623.018 572.866,623.533 574.067,624.245 C 577.087,626.037 588.477,631.500 589.192,631.500 C 589.514,631.500 590.147,631.931 590.598,632.458 C 591.333,633.316 591.436,636.212 591.576,659.926 C 591.662,674.506 591.581,686.586 591.397,686.769 C 591.213,686.953 590.992,686.152 590.907,684.989" stroke="#314970" fill="#314970" stroke-width="1" />
  <path id="229" d="M 467.060,721.111 C 466.726,720.487 465.651,717.900 464.673,715.363 C 463.695,712.826 462.649,710.300 462.347,709.750 C 462.046,709.200 461.738,708.395 461.666,707.961 C 461.450,706.687 456.528,694.606 455.510,692.855 C 454.997,691.972 454.191,689.903 453.719,688.256 C 453.246,686.610 452.680,684.922 452.461,684.506 C 451.430,682.553 449.500,678.005 448.731,677.875 C 448.916,678.356 449.168,680.063 449.291,681.668 C 449.500,684.419 449.425,684.669 447.954,686.043 C 447.096,686.845 446.005,687.500 445.531,687.500 C 445.055,687.500 444.512,687.654 444.323,687.843 C 443.599,688.567 442.004,688.300 441.721,687.409 C 440.712,683.174 434.071,684.897 435,681.673 C 433.168,681.747 432.777,681.926 431.769,682.968 C 432.165,682.328 430.548,680.412 429.933,680.792 C 425.522,681.764 425.522,681.764 424.495,682.255 C 423.647,683.278 422.826,683.189 421.707,681.952 C 420.772,680.920 420.776,680.890 421.930,679.956 C 422.692,679.338 423.515,679.110 425.573,676.662 C 426.247,675.851 428.098,675.798 428.868,676.568 C 429.292,676.992 429.627,676.944 430.188,676.383 C 430.858,675.713 430.786,675.481 429.523,674.272 C 428.438,673.232 427.712,672.953 426.428,673.082 C 422.446,672.673 425.538,667.893 423.244,669.495 C 422.828,669.150 421.770,668.784 420.892,668.682 C 418.775,668.435 418.274,667.857 419,666.500 C 417.424,662.606 415.829,669.180 415.375,667.051 C 414.519,666.734 414.245,666.231 414.230,664.942 C 414.219,664.011 414.416,662.969 414.666,662.625 C 415.371,660.261 412.050,664.470 412.202,663.082 C 411.815,662.530 411.555,661.667 411.624,661.164 C 410.940,657.775 409.950,664.291 410.188,663.866 C 409.924,663.703 408.817,663.462 407.728,663.332 C 406.640,663.201 405.176,662.870 404.474,662.597 C 403.773,662.324 402.536,662.183 401.724,662.283 C 400,662.500 404.465,659.916 401.637,660.596 C 400.586,661.510 399,661.587 399,660.723 C 399,659.898 395.630,658.350 394.485,658.649 C 393.354,658.945 392.990,658.130 393.563,656.587 C 393.914,655.644 394.304,655.453 395.623,655.577 C 396.518,655.660 397.363,655.846 397.500,655.989 C 398.202,656.721 400.942,657.322 401.684,656.907 C 407.851,655.595 414.034,657.919 415.288,657.598 C 416.067,656.486 417.430,656.305 418.092,657.227 C 418.305,657.522 418.877,657.473 419.592,657.100 C 420.916,656.410 424.073,656.505 424.610,657.250 C 428.231,656.399 428.231,657.613 429.474,658.218 C 429.801,658.613 430.728,659.081 431.534,659.258 C 433.072,660.154 434.644,660.777 434.681,661.250 C 434.227,662.433 437.793,662.253 438.831,661.040 C 440.861,660.516 443.096,661.188 442.769,660.250 C 442.608,659.425 442.358,658.075 442.211,657.250 C 442.065,656.425 441.620,654.786 441.223,653.607 C 440.380,651.109 440.288,650.084 440.967,650.775 C 441.413,651.229 442.933,655.240 446.830,666.250 C 448.579,671.192 453.137,683.028 462.981,708.188 C 465.764,715.303 467.957,721.378 467.854,721.686 C 467.752,721.995 467.394,721.736 467.060,721.111" stroke="#314970" fill="#314970" stroke-width="1" />
  </g><g id="suits 2"><path id="229" d="M 709.875,775.226 C 709.669,775.010 709.499,773.014 709.498,770.792 C 709.494,762.421 707.889,745.727 706.231,736.820 C 705.410,732.406 705.310,730.500 705.899,730.500 C 706.120,730.500 706.604,731.344 706.977,732.375 C 708.515,736.632 712.146,743.717 713.317,744.750 C 713.630,745.025 714.135,747.283 714.440,749.767 C 714.764,752.403 715.838,756.775 717.019,760.267 C 719.069,766.331 721.192,774.473 720.821,774.846 C 720.413,775.254 710.239,775.607 709.875,775.226" stroke="#314970" fill="#314970" stroke-width="1" />
  <path id="229" d="M 645.500,651.672 C 643.163,650.721 634.050,647.503 625.250,644.520 C 608.880,638.974 596.227,634.402 594,633.229 C 592.799,632.596 593.076,632.413 601,628.596 C 611.113,623.724 621.951,619.133 633.500,614.827 C 648.307,609.308 652.098,608.029 651.495,608.757 C 650.860,609.521 650.594,651.939 651.217,652.947 C 651.804,653.896 649.943,653.481 645.500,651.672" stroke="#314970" fill="#314970" stroke-width="1" />
  <path id="216" d="M 719.125,775.177 C 720.156,775.047 721,774.849 721,774.739 C 721,773.645 718.624,765.015 717.011,760.250 C 715.793,756.651 714.750,752.380 714.404,749.576 C 714.037,746.596 713.587,744.811 713.164,744.648 C 712.799,744.508 712.500,744.196 712.500,743.954 C 712.500,743.712 711.846,742.443 711.047,741.133 C 710.247,739.822 708.856,736.950 707.955,734.750 C 706.040,730.078 706.055,730.102 705.581,730.869 C 705.380,731.193 704.824,729.552 704.345,727.221 C 700.403,708.072 691.166,688.183 680.226,675.288 C 676.563,670.969 668.705,663.963 664.250,661.044 C 662.325,659.783 658.612,657.625 656,656.250 C 653.388,654.875 651.170,653.413 651.073,653 C 650.917,652.340 650.947,610.185 651.105,608.653 C 651.139,608.324 651.298,608.076 651.458,608.101 C 651.870,608.163 656.811,605.934 667.225,600.989 C 667.225,600.989 676.200,596.726 676.200,596.726 C 676.200,596.726 685.780,625.238 685.780,625.238 C 695.942,655.481 698.805,663.546 707.269,685.787 C 716.438,709.881 723.157,724.292 731.497,737.750 C 734.177,742.072 736,745.812 736,746.984 C 736,747.543 736.192,748 736.428,748 C 737.257,748 740.893,742.159 744.986,734.250 C 747.263,729.850 750.311,724 751.758,721.250 C 753.206,718.500 755.335,714.450 756.490,712.250 C 758.999,707.471 765.662,693.045 768.268,686.750 C 771.317,679.386 779.176,658.759 781.740,651.391 C 783.833,645.374 784.232,644.589 784.993,644.996 C 787.976,646.592 833.975,691.620 835.438,694.375 C 835.438,694.375 836.035,695.500 836.035,695.500 C 836.035,695.500 818.518,695.500 818.518,695.500 C 818.518,695.500 801,695.500 801,695.500 C 801,695.500 801,703 801,703 C 801,703 801,710.500 801,710.500 C 801,710.500 803.242,710.500 803.242,710.500 C 803.242,710.500 805.485,710.500 805.485,710.500 C 805.485,710.500 805.617,740.684 805.617,740.684 C 805.617,740.684 805.750,770.868 805.750,770.868 C 805.750,770.868 801.500,771.176 801.500,771.176 C 799.163,771.346 793.425,771.818 788.750,772.226 C 769.163,773.938 748.745,775.045 733.500,775.223 C 724.562,775.327 718.094,775.307 719.125,775.177" stroke="#405D84" fill="#405D84" stroke-width="1" />
  <path id="229" d="M 805.500,740.578 C 805.500,740.578 805.500,710.512 805.500,710.512 C 805.500,710.512 824.625,710.381 824.625,710.381 C 824.625,710.381 843.750,710.250 843.750,710.250 C 843.750,710.250 843.750,703 843.750,703 C 843.750,703 843.750,695.750 843.750,695.750 C 843.750,695.750 839.994,695.500 839.994,695.500 C 839.994,695.500 836.237,695.250 836.237,695.250 C 836.237,695.250 831.674,690.250 831.674,690.250 C 823.024,680.773 791.135,649.740 785.817,645.625 C 785.817,645.625 784.385,644.516 784.385,644.516 C 784.385,644.516 787.918,633.883 787.918,633.883 C 791.883,621.946 794.279,614.181 796.832,605 C 797.788,601.562 798.663,598.461 798.776,598.107 C 798.941,597.594 799.260,597.607 800.366,598.176 C 801.127,598.567 807.753,601.385 815.090,604.438 C 828.766,610.129 837.454,613.443 858,620.814 C 873.326,626.312 873.879,626.544 877.591,629.044 C 892.278,638.937 902.216,650.519 908.715,665.322 C 912.617,674.210 916.898,689.096 920.700,707 C 923.230,718.913 924.285,729.176 924.575,744.686 C 924.575,744.686 924.705,751.621 924.705,751.621 C 924.705,751.621 921.477,752.845 921.477,752.845 C 914.711,755.409 904.461,757.668 889.250,759.947 C 885.675,760.482 878.362,761.609 873,762.449 C 853.786,765.461 824.688,769.067 809.625,770.305 C 809.625,770.305 805.500,770.644 805.500,770.644 C 805.500,770.644 805.500,740.578 805.500,740.578" stroke="#314970" fill="#314970" stroke-width="1" />
  </g><g id="suits 1"><path id="229" d="M 291.466,729.625 C 295.772,720.872 309.901,678.838 315.205,659 C 317.473,650.520 321.373,633.449 322.974,625 C 323.834,620.462 324.866,615.244 325.269,613.402 C 325.671,611.559 326,609.491 326,608.806 C 326,607.068 326.772,606.773 328.378,607.896 C 330.517,609.393 343.410,616.500 343.986,616.500 C 344.330,616.500 344.500,623.534 344.500,637.793 C 344.500,637.793 344.500,659.085 344.500,659.085 C 344.500,659.085 338.846,664.668 338.846,664.668 C 327.712,675.660 318.452,691.306 311.721,710.500 C 309.849,715.842 308.576,717.480 302.500,722.367 C 300.438,724.026 296.898,726.985 294.635,728.942 C 292.371,730.899 290.414,732.500 290.285,732.500 C 290.156,732.500 290.688,731.206 291.466,729.625" stroke="#314970" fill="#314970" stroke-width="1" />
  <path id="158" d="M 263.750,773.465 C 260.725,773.248 254.425,772.818 249.750,772.509 C 233.702,771.448 214.742,769.999 206.750,769.222 C 193.332,767.917 152.388,763.055 141.250,761.443 C 122.566,758.740 117.486,757.833 102.500,754.520 C 97.565,753.429 90.085,752.001 89.297,752 C 88.766,752 89.348,728.396 90,723.500 C 90.238,721.712 90.662,718.225 90.942,715.750 C 92.083,705.673 96.183,690.054 100.302,680.096 C 107.180,663.462 117.364,649.899 130.022,640.514 C 134.857,636.929 141.602,633.037 146.525,630.991 C 150.725,629.246 157.615,626.596 159.500,626 C 160.188,625.782 168.042,623.216 176.956,620.299 C 185.869,617.381 193.234,615.067 193.323,615.157 C 193.412,615.245 193.496,627.992 193.508,643.482 C 193.508,643.482 193.531,671.646 193.531,671.646 C 193.531,671.646 196.724,675.735 196.724,675.735 C 200.617,680.721 216.076,698.424 225.851,709.092 C 234.538,718.573 253.937,737.598 254.538,737.226 C 254.775,737.080 254.500,735.788 253.927,734.355 C 251.758,728.938 246.822,715.435 244.018,707.250 C 242.416,702.575 239.593,694.587 237.743,689.500 C 230.822,670.461 226.977,658.274 222.285,640.500 C 221.014,635.688 218.851,627.673 217.476,622.691 C 214.827,613.087 213.500,606.949 213.500,604.298 C 213.500,602.854 213.856,602.453 216.875,600.500 C 223.843,595.991 228.189,593.500 229.086,593.500 C 229.595,593.500 231.616,594.568 233.577,595.875 C 235.538,597.182 245.042,602.988 254.696,608.779 C 267.752,616.610 272.250,619.548 272.250,620.242 C 272.250,620.862 271.070,621.899 268.750,623.320 C 266.825,624.499 262.750,627.441 259.695,629.857 C 237.594,647.337 232.976,651.500 235.692,651.500 C 236.456,651.500 250.653,642.136 254.395,639.164 C 255.690,638.135 257.017,637.100 257.344,636.861 C 257.748,636.568 258.377,637.125 259.300,638.590 C 260.050,639.778 262.467,643.521 264.673,646.908 C 264.673,646.908 268.684,653.066 268.684,653.066 C 268.684,653.066 266.542,658.158 266.542,658.158 C 260.132,673.396 257.832,682.812 257.782,694 C 257.747,701.918 258.149,704.246 261.322,714.475 C 264.260,723.948 270.909,740.928 273.517,745.618 C 273.795,746.117 274,752.328 274,760.243 C 274,760.243 274,774 274,774 C 274,774 271.625,773.929 271.625,773.929 C 270.319,773.890 266.775,773.682 263.750,773.465M 230.444,644.683 C 225.483,636.249 222,631.548 222,633.290 C 222,633.816 232.631,649.535 232.843,649.323 C 232.957,649.210 231.877,647.121 230.444,644.683" stroke="#FDFDFA" fill="#FDFDFA" stroke-width="1" />
  <path id="232" d="M 227.318,641.556 C 224.393,637.169 222,633.450 222,633.290 C 222,633.131 222.219,633 222.485,633 C 223.346,633 233.370,648.797 232.843,649.323 C 232.729,649.438 230.243,645.942 227.318,641.556" stroke="#E5F2F9" fill="#E5F2F9" stroke-width="1" />
  <path id="232" d="M 235,651.111 C 235,650.052 237.303,647.880 245.167,641.529 C 249.887,637.716 254.650,633.861 255.750,632.961 C 256.850,632.062 257.481,631.622 257.152,631.986 C 256.683,632.503 256.765,633.059 257.527,634.553 C 258.582,636.621 258.727,637.199 258.091,636.807 C 257.867,636.668 256.348,637.604 254.716,638.887 C 250.376,642.301 236.500,651.500 235.692,651.500 C 235.311,651.500 235,651.326 235,651.111" stroke="#E5F2F9" fill="#E5F2F9" stroke-width="1" />
  <path id="216" d="M 252.226,735.399 C 251.139,734.243 250.700,733.612 249.794,732.808 C 248.648,732.639 228.532,712.499 228.804,711.791 C 228.921,711.485 227.720,710 226.135,708.491 C 226.135,708.491 223.252,705.750 223.252,705.750 C 223.252,705.750 225.501,708.250 225.501,708.250 C 225.501,708.250 227.750,710.750 227.750,710.750 C 227.750,710.750 225.416,708.561 225.416,708.561 C 224.131,707.356 223.180,706.113 223.301,705.798 C 223.422,705.482 222.562,704.330 221.389,703.237 C 219.364,701.351 219.332,701.338 220.753,703 C 220.753,703 222.250,704.750 222.250,704.750 C 222.250,704.750 220.662,703.317 220.662,703.317 C 219.790,702.529 219.176,701.624 219.298,701.304 C 219.421,700.985 218.562,699.830 217.389,698.737 C 215.364,696.851 215.332,696.838 216.753,698.500 C 216.753,698.500 218.250,700.250 218.250,700.250 C 218.250,700.250 216.662,698.817 216.662,698.817 C 215.790,698.029 215.176,697.124 215.298,696.804 C 215.421,696.485 214.562,695.330 213.389,694.237 C 211.364,692.351 211.332,692.338 212.753,694 C 212.753,694 214.250,695.750 214.250,695.750 C 214.250,695.750 212.662,694.317 212.662,694.317 C 211.790,693.529 211.177,692.621 211.300,692.298 C 211.424,691.976 210.792,691.045 209.895,690.231 C 209.326,690.266 210.036,691.293 208.296,688.812 C 208.421,688.486 207.677,687.438 206.642,686.485 C 204.020,684.304 208.916,689.578 205.911,686.572 C 205.174,685.924 204.674,685.128 204.799,684.803 C 204.923,684.477 204.290,683.545 203.389,682.731 C 203.389,682.731 201.754,681.250 201.754,681.250 C 202.587,682.250 205.290,685.500 202.911,683.072 C 202.174,682.424 201.674,681.628 201.799,681.303 C 201.923,680.977 201.292,680.045 200.395,679.231 C 200.390,674.013 195.663,674.013 195.681,672.889 C 195.474,672.553 195.236,659.409 195.153,643.679 C 195.153,643.679 195.001,615.081 195.001,615.081 C 195.001,615.081 196.876,613.963 196.876,613.963 C 197.907,613.349 198.975,612.583 199.250,612.261 C 199.525,611.940 201.325,610.806 203.250,609.740 C 205.175,608.676 208.181,606.936 209.930,605.874 C 211.679,604.812 213.158,604.012 213.216,604.096 C 213.275,604.181 213.696,606.388 214.150,609 C 214.606,611.612 216.075,617.688 217.415,622.500 C 218.756,627.312 220.703,634.513 221.744,638.500 C 226.512,656.779 229.960,667.832 236.875,687 C 239.207,693.462 242.304,702.237 243.759,706.500 C 246.444,714.364 251.043,727.067 252.959,731.908 C 253.538,733.370 253.784,734.426 253.506,734.254 C 250.759,736.051 256.691,737.161 254.798,736.923 C 254.321,737.693 254.464,737.777 252.226,735.399" stroke="#405D84" fill="#405D84" stroke-width="1" />
  </g><g id="ties 3"><path id="157" d="M 500.846,765.070 C 499.281,761.841 498,758.845 498,758.411 C 498,757.977 497.700,757.373 497.332,757.068 C 496.966,756.764 496.363,755.554 495.993,754.382 C 495.625,753.210 495.024,751.894 494.661,751.461 C 494.298,751.027 494,750.449 494,750.179 C 494,749.909 493.438,748.521 492.750,747.096 C 492.062,745.671 491.500,744.275 491.500,743.995 C 491.500,743.716 491.303,743.096 491.061,742.618 C 489.483,739.498 486.165,730.504 485.668,728 C 485.531,727.312 485.284,726.413 485.120,726 C 484.786,725.161 484.632,724.337 484.467,722.500 C 484.273,720.319 486.348,710.042 488,705 C 488.496,703.487 489.620,699.888 490.499,697 C 491.378,694.112 492.400,690.962 492.771,690 C 493.142,689.038 494.038,686.225 494.764,683.750 C 495.490,681.275 496.514,678.288 497.041,677.111 C 498.190,674.549 498.232,673.815 497.276,673.021 C 496.446,672.332 489.500,663.216 489.500,662.815 C 489.500,662.669 488.825,661.550 488,660.327 C 487.175,659.105 486.500,657.884 486.500,657.614 C 486.500,657.343 486.149,656.832 485.721,656.476 C 485.293,656.120 484.574,655.024 484.123,654.040 C 483.671,653.056 483.223,652.102 483.125,651.923 C 483.028,651.742 484.928,650.063 487.349,648.192 C 489.769,646.321 493.904,643.044 496.535,640.912 C 502.894,635.759 503.014,635.724 506.462,638.018 C 508.923,639.654 516.754,645.661 522.119,650.026 C 522.119,650.026 523.988,651.547 523.988,651.547 C 523.988,651.547 521.952,655.596 521.952,655.596 C 519.643,660.188 513.439,670.080 511.616,672.077 C 510.211,673.616 510.260,675.023 511.889,679.753 C 512.457,681.401 513.516,684.775 514.244,687.250 C 514.971,689.725 515.880,692.650 516.264,693.750 C 516.649,694.850 517.094,696.519 517.254,697.458 C 517.413,698.398 517.636,699.315 517.749,699.497 C 518.171,700.182 520.480,709.440 521.471,714.429 C 523.393,724.098 522.957,726.519 516.215,743.615 C 512.649,752.655 504.716,770.307 504.028,770.732 C 503.843,770.847 502.411,768.298 500.846,765.070" stroke="#00DAC3" fill="#00DAC3" stroke-width="1" />
  </g><g id="ties 2"><path id="188" d="M 736,746.792 C 736,746.127 736.240,745.504 736.532,745.406 C 736.903,745.283 737.092,729.805 737.157,694.365 C 737.251,642.602 737.218,641.589 735.514,644.375 C 735.104,645.047 735.054,644.786 735.301,643.250 C 735.477,642.150 735.819,641.036 736.061,640.775 C 736.824,639.949 736.583,636.001 734.500,634.500 C 734.280,635.188 734.077,636.594 734.050,637.625 C 734.023,638.656 733.818,639.500 733.596,639.500 C 732.331,639.500 724,622.979 724,620.471 C 724,619.250 724.633,618.508 727.875,615.923 C 738.206,607.690 741.215,607.266 748.323,613.043 C 753.841,617.527 757,620.527 757,621.285 C 757,621.641 756.355,623.018 755.565,624.342 C 754.775,625.667 752.582,629.538 750.690,632.947 C 748.798,636.356 746.634,639.808 745.880,640.620 C 745.880,640.620 744.509,642.096 744.509,642.096 C 744.509,642.096 746.304,647.673 746.304,647.673 C 747.292,650.740 749.328,656.962 750.830,661.500 C 756.048,677.267 757.750,687.668 756.601,696.765 C 755.944,701.960 753.928,710.489 751.534,718.187 C 750.691,720.902 750,723.455 750,723.861 C 750,724.949 741.176,741.782 738.853,745.125 C 736.677,748.256 736,748.652 736,746.792" stroke="#EA3C49" fill="#EA3C49" stroke-width="1" />
  <path id="48" d="M 734.197,742.510 C 733.342,740.870 732.874,739.672 733.156,739.846 C 733.485,740.050 733.532,739.820 733.284,739.207 C 731.841,735.632 727.491,721.067 725.792,714.125 C 721.727,697.516 721.077,689.186 723.031,678.750 C 724.576,670.500 729.442,655.093 733.210,646.524 C 735.188,642.025 735.309,641.379 734.332,640.568 C 733.818,640.141 733.761,639.300 734.087,636.918 C 734.513,633.808 735,632.443 735,634.363 C 735,634.929 735.337,635.523 735.750,635.681 C 736.583,636.001 736.824,639.949 736.061,640.775 C 735.819,641.036 735.477,642.150 735.301,643.250 C 735.054,644.786 735.104,645.047 735.514,644.375 C 737.218,641.589 737.252,642.611 737.142,693.875 C 737.082,721.581 737.027,744.531 737.017,744.875 C 736.976,746.386 735.626,745.255 734.197,742.510" stroke="#EE5759" fill="#EE5759" stroke-width="1" />
  </g><g id="ties 1"><path id="188" d="M 272.820,652.572 C 272.349,651.701 272.793,621.822 273.279,621.658 C 273.759,621.497 285.657,629.128 288.381,631.343 C 288.381,631.343 289.512,632.263 289.512,632.263 C 289.512,632.263 286.870,637.506 286.870,637.506 C 284.146,642.917 279.834,649.642 278.188,651.053 C 277.156,651.938 273.098,653.086 272.820,652.572" stroke="#EA3C49" fill="#EA3C49" stroke-width="1" />
  <path id="48" d="M 272.193,742.625 C 266.351,729.643 261.321,715.855 258.923,706.250 C 257.329,699.859 257.336,689.048 258.941,681.167 C 260.151,675.225 263.036,666.493 266.542,658.158 C 266.542,658.158 268.684,653.066 268.684,653.066 C 268.684,653.066 264.604,646.908 264.604,646.908 C 259.397,639.046 256.372,633.019 257.156,632.067 C 258.988,629.843 270.904,621.503 272.250,621.502 C 272.574,621.501 272.730,626.922 272.693,636.876 C 272.663,645.332 272.717,652.395 272.815,652.572 C 273.096,653.078 277.140,651.946 278.241,651.053 C 279.320,649.664 277.591,653.836 277.159,652.893 C 276.462,652.951 275.296,653.282 274.570,653.630 C 274.570,653.630 273.250,654.261 273.250,654.261 C 273.250,654.261 272.979,664.506 272.979,664.506 C 272.668,676.274 272.933,742.162 274.747,745.005 C 274.113,746.032 273.448,745.412 272.193,742.625" stroke="#EE5759" fill="#EE5759" stroke-width="1" />
  <path id="188" d="M 273.273,744.073 C 273.111,743.563 272.928,723.322 272.865,699.091 C 272.738,650.258 272.470,654.066 276.092,653.093 C 277.600,652.688 278.069,652.749 278.675,653.424 C 280.308,655.244 286.091,671.710 289.062,683 C 290.427,688.186 290.699,700.295 289.562,705.250 C 286.159,720.074 276.401,745 274,745 C 273.762,745 273.435,744.583 273.273,744.073" stroke="#EA3C49" fill="#EA3C49" stroke-width="1" />
  </g><g id="medical cross"><path id="157" d="M 595.889,761.125 C 595.889,761.125 595.750,754.250 595.750,754.250 C 595.750,754.250 589.438,754.111 589.438,754.111 C 589.438,754.111 583.127,753.971 583.127,753.971 C 583.127,753.971 582.905,750.111 582.905,750.111 C 582.783,747.987 582.781,744.731 582.900,742.875 C 582.900,742.875 583.116,739.500 583.116,739.500 C 583.116,739.500 589.308,739.500 589.308,739.500 C 589.308,739.500 595.500,739.500 595.500,739.500 C 595.500,739.500 595.500,732.750 595.500,732.750 C 595.500,732.750 595.500,726 595.500,726 C 595.500,726 601.750,726 601.750,726 C 601.750,726 608,726 608,726 C 608,726 608,732.486 608,732.486 C 608,732.486 608,738.972 608,738.972 C 608,738.972 615.125,739.111 615.125,739.111 C 615.125,739.111 622.250,739.250 622.250,739.250 C 622.250,739.250 622.395,746.625 622.395,746.625 C 622.395,746.625 622.540,754 622.540,754 C 622.540,754 615.520,754 615.520,754 C 615.520,754 608.500,754 608.500,754 C 608.500,754 608.500,761 608.500,761 C 608.500,761 608.500,768 608.500,768 C 608.500,768 602.264,768 602.264,768 C 602.264,768 596.028,768 596.028,768 C 596.028,768 595.889,761.125 595.889,761.125" stroke="#00DAC3" fill="#00DAC3" stroke-width="1" />
  </g></svg>